<svg xmlns="http://www.w3.org/2000/svg" viewBox="0 0 512 512">
  <title>Astro</title>
  <path fill="#fff" d="M345.9 291.8c0-20.6-16.3-37.4-36.4-37.4-8 0-15.5 2.7-21.6 7.4L235.1 225c-7.9-5.7-18.5-5.7-26.4 0l-52.8 36.8c-6.1-4.7-13.5-7.4-21.6-7.4-20.1 0-36.4 16.8-36.4 37.4v74.3c0 20.6 16.3 37.4 36.4 37.4 8 0 15.5-2.7 21.6-7.4l52.8-36.8c7.9-5.7 18.5-5.7 26.4 0l52.8 36.8c6.1 4.7 13.5 7.4 21.6 7.4 20.1 0 36.4-16.8 36.4-37.4v-74.3zm-10.5 74.3c0 5.5-4.3 10-9.6 10-2.1 0-4.1-.8-5.6-2.2l-52.8-36.8c-13.2-9.6-31-9.6-44.2 0l-52.8 36.8c-1.5 1.4-3.5 2.2-5.6 2.2-5.3 0-9.6-4.5-9.6-10v-74.3c0-5.5 4.3-10 9.6-10 2.1 0 4.1.8 5.6 2.2l52.8 36.8c13.2 9.6 31 9.6 44.2 0l52.8-36.8c1.5-1.4 3.5-2.2 5.6-2.2 5.3 0 9.6 4.5 9.6 10v74.3z"/>
</svg>

