<svg width="133" height="15" viewBox="0 0 133 15" fill="none" xmlns="http://www.w3.org/2000/svg">

<path d="M11.8463 0.262154V2.8339H5.75502C3.35858 2.8339 2.64143 3.94537 2.64143 5.31682V6.71211H11.7573V9.1517H2.64366V14.969H0V5.33849C0 2.39625 1.56793 0.262154 5.57685 0.262154H11.8486H11.8463Z" fill="black"/>

<path d="M18.029 0.262154V9.87101C18.029 11.288 18.7462 12.3973 21.1203 12.3973H26.9889V14.969H20.9644C16.9555 14.969 15.3876 12.8349 15.3876 9.89268V0.262154H18.0312H18.029Z" fill="black"/>

<path d="M31.5346 14.9669H28.6237L33.931 1.89577C34.49 0.52215 35.5212 0 37.1114 0C38.7016 0 39.7083 0.52215 40.2473 1.89577L45.3542 14.9669H42.421L37.8308 3.13723C37.6972 2.78841 37.4499 2.63675 37.0914 2.63675C36.7328 2.63675 36.4878 2.78841 36.3297 3.13723L31.5368 14.9669H31.5346Z" fill="black"/>

<path d="M56.9087 0.262154V2.8339H52.4967V14.969H49.8307V2.83174H45.4187V0.262154H56.9065H56.9087Z" fill="black"/>

<path d="M74.6482 0.262154C78.0513 0.262154 79.5079 2.30959 79.5079 4.66251C79.5079 6.49329 78.6126 8.45406 76.3052 9.08454L79.8219 14.9668H76.8887L73.4388 9.27953H69.4967C69.2495 9.27953 69.1159 9.38786 69.1159 9.65002V14.9668H66.4722V9.14954C66.4722 7.49425 67.1894 6.81828 68.8464 6.81828H74.7373C76.2384 6.81828 76.842 5.81514 76.842 4.77084C76.842 3.72654 76.1916 2.83174 74.7373 2.83174H66.45V0.262154H74.646H74.6482Z" fill="black"/>

<path d="M91.0425 0.262154C95.4323 0.262154 97.8732 2.70174 97.8732 7.64808C97.8732 12.5944 95.4545 14.969 91.0425 14.969H88.9824C84.5703 14.969 82.1516 12.5728 82.1516 7.64808C82.1516 2.72341 84.5926 0.262154 88.9824 0.262154H91.0425ZM88.9824 2.8339C86.0714 2.8339 84.7953 4.27252 84.7953 7.64808C84.7953 11.0236 86.0492 12.3973 88.9824 12.3973H91.0425C93.9534 12.3973 95.2073 11.002 95.2073 7.62642C95.2073 4.25086 93.9534 2.8339 91.0425 2.8339H88.9824Z" fill="black"/>

<path d="M109.878 0.262154C114.267 0.262154 116.708 2.70174 116.708 7.64808C116.708 12.5944 114.29 14.969 109.878 14.969H107.818C103.406 14.969 100.987 12.5728 100.987 7.64808C100.987 2.72341 103.428 0.262154 107.818 0.262154H109.878ZM107.818 2.8339C104.907 2.8339 103.63 4.27252 103.63 7.64808C103.63 11.0236 104.884 12.3973 107.818 12.3973H109.878C112.789 12.3973 114.043 11.002 114.043 7.62642C114.043 4.25086 112.789 2.8339 109.878 2.8339H107.818Z" fill="black"/>

<path d="M132.096 0.262154V2.8339H126.005C123.608 2.8339 122.891 3.94537 122.891 5.31682V6.71211H132.007V9.1517H122.891V14.969H120.247V5.33849C120.247 2.39625 121.815 0.262154 125.824 0.262154H132.096Z" fill="black"/>

</svg>

